<?xml version="1.0" encoding="iso-8859-1"?>
<!-- Generator: Adobe Illustrator 19.0.0, SVG Export Plug-In . SVG Version: 6.00 Build 0)  -->
<svg version="1.1" id="Capa_1" xmlns="http://www.w3.org/2000/svg" xmlns:xlink="http://www.w3.org/1999/xlink" x="0px" y="0px"
	 viewBox="0 0 512 512" style="enable-background:new 0 0 512 512;" xml:space="preserve">
<g>
	<circle style="fill:#E1E6E9;" cx="142.938" cy="453.556" r="47.06"/>
	<path style="fill:#F9AF4D;" d="M364.589,130.829c4.669,4.67,8.554,9.838,11.654,15.338l33.252-33.252l-26.994-26.992
		l-33.251,33.252c5.464,3.078,10.601,6.934,15.245,11.561C364.526,130.766,364.557,130.798,364.589,130.829z"/>
	<path style="fill:#4AD194;" d="M364.495,130.735c-4.645-4.627-9.781-8.482-15.245-11.561l-0.003,0.002
		C354.712,122.257,359.85,126.108,364.495,130.735L364.495,130.735z M376.243,146.167c15.354,27.238,11.47,62.607-11.655,85.731
		l-7.396,7.396L176.213,420.271c-18.38-18.379-48.179-18.379-66.558,0l-23.414-23.412l-31.181-31.182
		c-7.259-7.26-7.259-19.135,0-26.395l208.457-208.454c23.124-23.125,58.493-27.01,85.732-11.654
		c5.464,3.078,10.601,6.934,15.245,11.561c0.031,0.031,0.063,0.063,0.094,0.094C369.258,135.499,373.142,140.667,376.243,146.167z"
		/>
	
		<rect x="388.021" y="72.638" transform="matrix(0.7071 0.7071 -0.7071 0.7071 181.6938 -261.9977)" style="fill:#636A75;" width="38.169" height="31.375"/>
	<circle style="fill:#BDE5F8;" cx="339.337" cy="42.757" r="31.376"/>
	<path d="M507.063,152.424c-28.614-16.806-64.956-12.186-88.377,11.235l-23.474,23.474c0.132-1.912,0.222-3.832,0.222-5.768
		c0-11.658-2.433-22.92-7.018-33.228L438.751,97.8c1.876-1.876,2.929-4.419,2.929-7.071s-1.054-5.196-2.929-7.071l-26.993-26.992
		c-3.905-3.904-10.237-3.904-14.142,0L382.502,71.78l-7.696-7.695c3.848-6.373,5.905-13.691,5.905-21.328
		c0-11.053-4.304-21.442-12.119-29.256c-7.815-7.815-18.205-12.12-29.257-12.12s-21.443,4.305-29.256,12.119
		c-7.816,7.815-12.12,18.204-12.12,29.257s4.304,21.442,12.119,29.256c7.815,7.815,18.205,12.12,29.257,12.12
		c7.637,0,14.956-2.058,21.329-5.905l7.696,7.695l-21.079,21.079c-10.308-4.585-21.569-7.019-33.228-7.019
		c-21.817,0-42.275,8.443-57.606,23.774L47.991,332.214c-9.867,9.869-11.015,25.199-3.455,36.347
		c-13.534-0.497-27.282,2.757-39.599,9.991c-4.762,2.797-6.355,8.925-3.558,13.688s8.926,6.355,13.687,3.559
		c20.763-12.197,47.125-8.852,64.106,8.133c0.003,0.004,0.007,0.006,0.011,0.01l16.958,16.958
		c-6.664,9.509-10.269,20.802-10.269,32.654c0,15.242,5.936,29.572,16.714,40.349c10.777,10.779,25.107,16.716,40.35,16.716
		s29.572-5.937,40.35-16.715c10.778-10.777,16.714-25.107,16.714-40.35c0-11.853-3.605-23.146-10.269-32.654L364.248,246.38
		c0.005-0.005,0.01-0.009,0.015-0.014l68.564-68.564c16.982-16.984,43.344-20.329,64.106-8.132
		c4.764,2.797,10.89,1.205,13.688-3.559C513.418,161.35,511.825,155.222,507.063,152.424z M324.219,57.871
		c-4.037-4.037-6.261-9.404-6.261-15.114s2.224-11.077,6.262-15.115c4.037-4.037,9.404-6.261,15.114-6.261
		c5.71,0,11.077,2.224,15.115,6.262c4.037,4.037,6.261,9.404,6.261,15.114c0,5.709-2.223,11.074-6.26,15.112
		c0,0.001-0.001,0.001-0.002,0.002s-0.002,0.002-0.003,0.003c-4.036,4.036-9.403,6.259-15.111,6.259
		C333.625,64.132,328.258,61.909,324.219,57.871z M404.687,77.879l12.851,12.851l-8.043,8.044l-12.851-12.851L404.687,77.879z
		 M364.873,117.692l17.628-17.628l12.852,12.851l-17.628,17.629c-0.063-0.079-0.133-0.153-0.197-0.232
		c-0.71-0.881-1.445-1.744-2.194-2.6c-0.228-0.26-0.446-0.526-0.677-0.784c-0.948-1.054-1.922-2.088-2.93-3.099
		c-0.023-0.023-0.044-0.048-0.067-0.071c-0.022-0.022-0.046-0.042-0.068-0.063c-1.012-1.011-2.049-1.986-3.104-2.936
		c-0.253-0.227-0.517-0.442-0.773-0.667c-0.857-0.752-1.724-1.49-2.608-2.202C365.027,117.825,364.953,117.756,364.873,117.692z
		 M62.133,346.356L270.588,137.9c11.554-11.555,26.989-17.918,43.464-17.918c10.851,0,21.242,2.776,30.379,7.962
		c1.601,0.907,3.157,1.89,4.668,2.937c0.284,0.197,0.568,0.395,0.849,0.597c0.372,0.267,0.741,0.536,1.107,0.811
		c0.567,0.428,1.129,0.863,1.683,1.313c0.235,0.19,0.466,0.386,0.699,0.58c0.52,0.435,1.035,0.877,1.543,1.331
		c0.2,0.179,0.4,0.358,0.598,0.54c0.657,0.602,1.307,1.214,1.94,1.848c0.634,0.634,1.245,1.284,1.848,1.94
		c0.181,0.198,0.361,0.398,0.54,0.598c0.457,0.512,0.904,1.031,1.343,1.557c0.173,0.207,0.349,0.412,0.519,0.621
		c0.47,0.579,0.925,1.167,1.372,1.76c0.266,0.354,0.526,0.711,0.785,1.07c0.216,0.3,0.427,0.603,0.637,0.906
		c1.035,1.496,2.008,3.036,2.905,4.621c5.19,9.14,7.969,19.536,7.969,30.392c0,16.475-6.363,31.91-17.917,43.463L175.6,406.744
		c-0.212-0.148-0.429-0.287-0.643-0.433c-0.231-0.158-0.463-0.315-0.697-0.469c-0.539-0.355-1.084-0.7-1.633-1.036
		c-0.176-0.107-0.35-0.22-0.527-0.326c-0.718-0.429-1.444-0.84-2.179-1.235c-0.183-0.099-0.37-0.19-0.554-0.287
		c-0.565-0.296-1.133-0.583-1.707-0.859c-0.257-0.124-0.516-0.244-0.775-0.364c-0.535-0.247-1.073-0.485-1.614-0.716
		c-0.245-0.104-0.488-0.211-0.734-0.311c-0.757-0.31-1.519-0.607-2.288-0.883c-0.032-0.012-0.064-0.023-0.096-0.035
		c-0.773-0.275-1.555-0.53-2.341-0.772c-0.254-0.078-0.509-0.15-0.764-0.225c-0.568-0.166-1.139-0.324-1.713-0.473
		c-0.275-0.071-0.55-0.142-0.826-0.209c-0.624-0.151-1.252-0.291-1.883-0.422c-0.202-0.042-0.403-0.089-0.605-0.129
		c-0.825-0.161-1.654-0.305-2.488-0.431c-0.203-0.03-0.408-0.053-0.611-0.081c-0.645-0.09-1.291-0.171-1.94-0.238
		c-0.282-0.029-0.565-0.056-0.848-0.081c-0.607-0.055-1.215-0.098-1.825-0.134c-0.263-0.015-0.525-0.033-0.788-0.045
		c-0.858-0.038-1.719-0.063-2.584-0.063c-0.865,0-1.726,0.024-2.583,0.063c-0.264,0.012-0.525,0.03-0.788,0.045
		c-0.61,0.036-1.219,0.079-1.825,0.134c-0.282,0.025-0.564,0.051-0.846,0.081c-0.654,0.068-1.305,0.149-1.954,0.239
		c-0.198,0.028-0.397,0.051-0.594,0.08c-0.838,0.125-1.671,0.27-2.499,0.432c-0.194,0.038-0.386,0.083-0.58,0.123
		c-0.641,0.133-1.278,0.275-1.912,0.429c-0.269,0.065-0.537,0.134-0.805,0.203c-0.584,0.151-1.165,0.313-1.743,0.481
		c-0.246,0.072-0.493,0.142-0.738,0.217c-1.607,0.495-3.189,1.061-4.743,1.696c-0.237,0.097-0.472,0.199-0.707,0.3
		c-0.553,0.234-1.102,0.478-1.646,0.729c-0.252,0.116-0.503,0.233-0.752,0.354c-0.583,0.28-1.16,0.572-1.733,0.873
		c-0.177,0.093-0.357,0.181-0.533,0.276c-0.736,0.396-1.464,0.809-2.183,1.237c-0.179,0.107-0.353,0.22-0.53,0.328
		c-0.546,0.334-1.087,0.676-1.622,1.029c-0.24,0.158-0.478,0.319-0.715,0.481c-0.21,0.143-0.424,0.279-0.632,0.425l-48.137-48.136
		C58.756,355.23,58.756,349.734,62.133,346.356z M169.142,479.759c-7.001,7.001-16.308,10.857-26.208,10.857
		c-9.899,0-19.207-3.855-26.207-10.857c-7-7-10.855-16.308-10.855-26.207c0-9.9,3.855-19.208,10.856-26.209
		c3.938-3.938,8.605-6.88,13.697-8.701c3.961-1.416,8.179-2.154,12.51-2.154c1.237,0,2.466,0.06,3.682,0.18
		c8.51,0.833,16.401,4.551,22.526,10.676c7.001,7.001,10.856,16.309,10.856,26.209C179.998,463.452,176.143,472.759,169.142,479.759
		z"/>
	<path d="M288.887,166.544c2.55,0,5.1-0.97,7.051-2.909l0.173-0.172c3.917-3.893,3.935-10.226,0.04-14.142
		c-3.893-3.917-10.225-3.934-14.142-0.04l-0.173,0.172c-3.917,3.894-3.935,10.226-0.04,14.142
		C283.751,165.56,286.319,166.544,288.887,166.544z"/>
	<path d="M237.971,217.457c2.559,0,5.118-0.977,7.071-2.929l29.947-29.947c3.905-3.905,3.905-10.237,0-14.143
		c-3.905-3.904-10.236-3.904-14.142,0l-29.947,29.947c-3.905,3.905-3.905,10.237,0,14.143
		C232.854,216.48,235.413,217.457,237.971,217.457z"/>
	<circle cx="142.938" cy="453.556" r="10.321"/>
</g>
<g>
</g>
<g>
</g>
<g>
</g>
<g>
</g>
<g>
</g>
<g>
</g>
<g>
</g>
<g>
</g>
<g>
</g>
<g>
</g>
<g>
</g>
<g>
</g>
<g>
</g>
<g>
</g>
<g>
</g>
</svg>
